<svg width="59" height="55" viewBox="0 0 59 55" fill="none" xmlns="http://www.w3.org/2000/svg">
<g id="msegslogo 2 1">
<g id="Group">
<path id="Vector" d="M42.0132 11.8294H37.1963C35.7962 10.127 33.9997 8.78257 31.9303 7.91829C30.3189 7.24606 28.54 6.87067 26.6732 6.87067C23.186 6.87067 20.0159 8.17146 17.6118 10.3104C17.5854 10.3365 17.559 10.354 17.5326 10.3802C17.4974 10.4064 17.4621 10.4413 17.4269 10.4762C16.0708 11.7159 14.9788 13.2262 14.2215 14.9024C13.8077 15.8453 13.4818 16.8492 13.2881 17.8794C13.1384 18.6738 13.068 19.477 13.068 20.3064C13.0768 20.3413 13.0856 20.3937 13.0856 20.4373L13.1032 20.9524C13.1296 21.6596 13.2089 22.358 13.3497 23.0215H13.3586L13.385 23.0302C13.5963 24.0865 13.9397 25.0905 14.3888 26.0334L14.3624 26.0246C15.6745 28.827 17.92 31.0969 20.7115 32.45C22.2614 33.2008 23.9874 33.681 25.7926 33.7857L27.272 37.7929L26.7436 37.8104C26.18 37.8104 25.6429 37.7842 25.1233 37.7405C16.4935 36.9897 9.57198 30.0143 9.11407 21.2754C9.09646 21.2405 9.08766 21.1881 9.07885 21.127L9.05243 20.4286C9.03482 16.6048 10.2677 13.0691 12.3635 10.1707C12.5396 9.95241 12.7157 9.7167 12.8918 9.48099C15.9651 5.6921 20.5794 3.17781 25.8278 2.93337C25.8542 2.92464 25.8806 2.92464 25.9071 2.91591C26.0127 2.91591 26.1184 2.90718 26.2241 2.89845H26.6203C33.1984 2.86352 38.9927 6.46035 42.0132 11.8294Z" fill="#5954A9"/>
<path id="Vector_2" d="M29.6233 35.7326V32.6509C29.6233 32.3715 29.8522 32.1445 30.134 32.1445H39.759C40.0408 32.1445 40.2697 32.3715 40.2697 32.6509V35.7326C40.2697 36.012 40.0408 36.239 39.759 36.239H30.1428C29.8611 36.2477 29.6233 36.0207 29.6233 35.7326Z" fill="#5954A9"/>
<path id="Vector_3" d="M44.8222 14.3174H25.1849C24.1193 14.3174 23.2563 15.1817 23.2563 16.2293V29.2198C23.2563 29.5952 23.5557 29.892 23.9344 29.892H46.1783C46.4513 29.892 46.6802 29.6737 46.6802 29.3944V16.1507C46.6626 15.138 45.8437 14.3174 44.8222 14.3174ZM42.5414 25.3087C42.5414 25.5793 42.3213 25.7975 42.0395 25.7975H27.8619C27.5889 25.7975 27.3687 25.588 27.3687 25.3087V18.9094C27.3687 18.6388 27.5801 18.4118 27.8619 18.4118H42.0307C42.3037 18.4118 42.5326 18.6301 42.5326 18.9094L42.5414 25.3087Z" fill="#5954A9"/>
</g>
<g id="Group_2">
<path id="Vector_4" d="M2.62427 39.5564H5.60069L8.50666 46.6627L11.3862 39.5564H14.3538V49.8231H11.8265V43.6683L9.51054 49.8231H7.47636L5.14278 43.6508V49.8231H2.62427V39.5564Z" fill="#5954A9"/>
<path id="Vector_5" d="M19.9016 49.9191C17.6825 49.9191 15.9301 48.8191 15.8596 46.75H18.5454C18.6247 47.5445 19.1266 47.9199 19.8311 47.9199C20.5708 47.9199 21.0375 47.5532 21.0375 46.9508C21.0375 45.0476 15.8596 46.0778 15.8948 42.4373C15.8948 40.4905 17.5063 39.408 19.6726 39.408C21.9269 39.408 23.4504 40.5254 23.5472 42.481H20.8174C20.7733 41.8262 20.2978 41.4246 19.6286 41.4159C19.021 41.3984 18.5631 41.704 18.5631 42.35C18.5631 44.131 23.6793 43.3278 23.6793 46.7675C23.6793 48.4873 22.3232 49.9191 19.9016 49.9191Z" fill="#5954A9"/>
<path id="Vector_6" d="M28.8925 49.9366C26.4797 49.9366 24.7273 48.3303 24.7273 45.7461C24.7273 43.162 26.4357 41.5557 28.8925 41.5557C31.2966 41.5557 32.9961 43.1358 32.9961 45.6239C32.9961 45.8596 32.9785 46.1041 32.9521 46.3573H27.2458C27.3339 47.4223 28.0031 47.92 28.8045 47.92C29.5089 47.92 29.914 47.5707 30.1165 47.1255H32.8024C32.3973 48.7057 30.9355 49.9366 28.8925 49.9366ZM27.2546 44.9517H30.4071C30.4071 44.0612 29.7027 43.5461 28.8573 43.5461C28.0383 43.5461 27.3955 44.0438 27.2546 44.9517Z" fill="#5954A9"/>
<path id="Vector_7" d="M43.9771 42.7952H41.1944C40.807 42.1055 40.1025 41.7388 39.1602 41.7388C37.5399 41.7388 36.4568 42.8825 36.4568 44.6634C36.4568 46.5666 37.5487 47.6753 39.3628 47.6753C40.6132 47.6753 41.485 47.0206 41.8725 45.8595H38.6759V44.0174H44.162V46.3484C43.6337 48.1206 41.9077 49.8841 39.1779 49.8841C36.0782 49.8841 33.9031 47.7365 33.9031 44.6634C33.9031 41.5904 36.0693 39.4341 39.169 39.4341C41.6259 39.4341 43.4311 40.6912 43.9771 42.7952Z" fill="#5954A9"/>
<path id="Vector_8" d="M49.2958 49.9191C47.0767 49.9191 45.3244 48.8191 45.2539 46.75H47.9397C48.019 47.5445 48.5209 47.9199 49.2254 47.9199C49.9651 47.9199 50.4318 47.5532 50.4318 46.9508C50.4318 45.0476 45.2539 46.0778 45.2891 42.4373C45.2891 40.4905 46.9006 39.408 49.0669 39.408C51.3212 39.408 52.8447 40.5254 52.9415 42.481H50.2117C50.1676 41.8262 49.6921 41.4246 49.0229 41.4159C48.4152 41.3984 47.9573 41.704 47.9573 42.35C47.9573 44.131 53.0736 43.3278 53.0736 46.7675C53.0736 48.4873 51.7087 49.9191 49.2958 49.9191Z" fill="#5954A9"/>
</g>
<g id="Group_3">
<path id="Vector_9" d="M53.5139 39.408H54.9053V39.7135H54.4033V41.2937H54.0247V39.7135H53.5227V39.408H53.5139Z" fill="#5954A9"/>
<path id="Vector_10" d="M55.187 39.408H55.6185L56.2261 40.8048L56.8337 39.408H57.2652V41.2937H56.8866V40.0715L56.3758 41.2937H56.0852L55.5745 40.0715V41.2937H55.1958V39.408H55.187Z" fill="#5954A9"/>
</g>
</g>
</svg>
