<svg width="30" height="30" viewBox="0 0 30 30" fill="none" xmlns="http://www.w3.org/2000/svg">
<g id="browser_3257050 1" clip-path="url(#clip0_113_600)">
<g id="Page-1">
<g id="009---Online-Login-Password">
<path id="Shape" d="M30 4.65517V28.4483C30 29.3053 29.3053 30 28.4483 30H1.55172C0.694731 30 0 29.3053 0 28.4483V4.65517H30Z" fill="#ECF0F1"/>
<path id="Shape_2" d="M30 1.55172V6.2069H0V1.55172C0 0.694731 0.694731 0 1.55172 0H28.4483C29.3053 0 30 0.694731 30 1.55172Z" fill="#547580"/>
<path id="Oval" d="M3.10333 4.13794C3.67466 4.13794 4.13781 3.67478 4.13781 3.10345C4.13781 2.53212 3.67466 2.06897 3.10333 2.06897C2.532 2.06897 2.06885 2.53212 2.06885 3.10345C2.06885 3.67478 2.532 4.13794 3.10333 4.13794Z" fill="#FF5364"/>
<path id="Oval_2" d="M7.24151 4.13794C7.81284 4.13794 8.276 3.67478 8.276 3.10345C8.276 2.53212 7.81284 2.06897 7.24151 2.06897C6.67018 2.06897 6.20703 2.53212 6.20703 3.10345C6.20703 3.67478 6.67018 4.13794 7.24151 4.13794Z" fill="#F3D55B"/>
<path id="Oval_3" d="M11.3792 4.13794C11.9505 4.13794 12.4137 3.67478 12.4137 3.10345C12.4137 2.53212 11.9505 2.06897 11.3792 2.06897C10.8079 2.06897 10.3447 2.53212 10.3447 3.10345C10.3447 3.67478 10.8079 4.13794 11.3792 4.13794Z" fill="#7ED09E"/>
<path id="Shape_3" d="M26.8967 3.62069H23.276C22.9904 3.62069 22.7588 3.38912 22.7588 3.10345C22.7588 2.81779 22.9904 2.58621 23.276 2.58621H26.8967C27.1824 2.58621 27.414 2.81779 27.414 3.10345C27.414 3.38912 27.1824 3.62069 26.8967 3.62069Z" fill="#3F5C6C"/>
<path id="Rectangle-path" d="M24.8275 20.6897H5.17233C4.31534 20.6897 3.62061 21.3844 3.62061 22.2414V26.3793C3.62061 27.2363 4.31534 27.931 5.17233 27.931H24.8275C25.6845 27.931 26.3792 27.2363 26.3792 26.3793V22.2414C26.3792 21.3844 25.6845 20.6897 24.8275 20.6897Z" fill="#9FC9D3"/>
<g id="Group">
<path id="Shape_4" d="M9.22352 22.9888C9.14739 22.8746 9.02903 22.7954 8.89449 22.7685C8.75994 22.7417 8.62023 22.7694 8.5061 22.8455L7.75869 23.3441V22.7586C7.75869 22.473 7.52711 22.2414 7.24145 22.2414C6.95578 22.2414 6.72421 22.473 6.72421 22.7586V23.3441L5.97679 22.8455C5.73912 22.687 5.41792 22.7511 5.25938 22.9888C5.10084 23.2265 5.16498 23.5477 5.40265 23.7062L6.31041 24.3103L5.40421 24.9145C5.25046 25.017 5.16311 25.1938 5.17505 25.3783C5.187 25.5627 5.29643 25.7267 5.46212 25.8086C5.62781 25.8905 5.8246 25.8777 5.97834 25.7752L6.72421 25.2766V25.8621C6.72421 26.1477 6.95578 26.3793 7.24145 26.3793C7.52711 26.3793 7.75869 26.1477 7.75869 25.8621V25.2766L8.5061 25.7752C8.65985 25.8777 8.85663 25.8905 9.02233 25.8086C9.18802 25.7267 9.29745 25.5627 9.3094 25.3783C9.32134 25.1938 9.23399 25.017 9.08024 24.9145L8.17248 24.3103L9.07869 23.7062C9.19309 23.6303 9.27263 23.5121 9.2998 23.3775C9.32696 23.243 9.29952 23.1031 9.22352 22.9888Z" fill="#3B97D3"/>
<path id="Shape_5" d="M14.3959 22.9888C14.3198 22.8746 14.2014 22.7954 14.0669 22.7685C13.9323 22.7417 13.7926 22.7694 13.6785 22.8455L12.9311 23.3441V22.7586C12.9311 22.473 12.6995 22.2414 12.4138 22.2414C12.1281 22.2414 11.8966 22.473 11.8966 22.7586V23.3441L11.1492 22.8455C10.9115 22.687 10.5903 22.7511 10.4317 22.9888C10.2732 23.2265 10.3373 23.5477 10.575 23.7062L11.4828 24.3103L10.5766 24.9145C10.4228 25.017 10.3355 25.1938 10.3474 25.3783C10.3594 25.5627 10.4688 25.7267 10.6345 25.8086C10.8002 25.8905 10.997 25.8777 11.1507 25.7752L11.8966 25.2766V25.8621C11.8966 26.1477 12.1281 26.3793 12.4138 26.3793C12.6995 26.3793 12.9311 26.1477 12.9311 25.8621V25.2766L13.6785 25.7752C13.8322 25.8777 14.029 25.8905 14.1947 25.8086C14.3604 25.7267 14.4698 25.5627 14.4818 25.3783C14.4937 25.1938 14.4064 25.017 14.2526 24.9145L13.3448 24.3103L14.2511 23.7062C14.3655 23.6303 14.445 23.5121 14.4722 23.3775C14.4993 23.243 14.4719 23.1031 14.3959 22.9888Z" fill="#3B97D3"/>
<path id="Shape_6" d="M19.5682 22.9888C19.4921 22.8746 19.3738 22.7954 19.2392 22.7685C19.1047 22.7417 18.965 22.7694 18.8508 22.8455L18.1034 23.3441V22.7586C18.1034 22.473 17.8718 22.2414 17.5862 22.2414C17.3005 22.2414 17.0689 22.473 17.0689 22.7586V23.3441L16.3215 22.8455C16.0838 22.687 15.7626 22.7511 15.6041 22.9888C15.4456 23.2265 15.5097 23.5477 15.7474 23.7062L16.6551 24.3103L15.7489 24.9145C15.5952 25.017 15.5078 25.1938 15.5198 25.3783C15.5317 25.5627 15.6412 25.7267 15.8068 25.8086C15.9725 25.8905 16.1693 25.8777 16.3231 25.7752L17.0689 25.2766V25.8621C17.0689 26.1477 17.3005 26.3793 17.5862 26.3793C17.8718 26.3793 18.1034 26.1477 18.1034 25.8621V25.2766L18.8508 25.7752C19.0046 25.8777 19.2014 25.8905 19.3671 25.8086C19.5327 25.7267 19.6422 25.5627 19.6541 25.3783C19.6661 25.1938 19.5787 25.017 19.425 24.9145L18.5172 24.3103L19.4234 23.7062C19.5378 23.6303 19.6174 23.5121 19.6445 23.3775C19.6717 23.243 19.6442 23.1031 19.5682 22.9888Z" fill="#3B97D3"/>
<path id="Shape_7" d="M24.3106 25.3448H21.2072C20.9215 25.3448 20.6899 25.5764 20.6899 25.8621C20.6899 26.1477 20.9215 26.3793 21.2072 26.3793H24.3106C24.5963 26.3793 24.8279 26.1477 24.8279 25.8621C24.8279 25.5764 24.5963 25.3448 24.3106 25.3448Z" fill="#3B97D3"/>
<path id="Shape_8" d="M20.1724 13.4483C20.1743 15.0753 19.4072 16.6076 18.1034 17.581C18.1015 16.2922 17.3025 15.139 16.0965 14.6845C16.8792 14.1953 17.2432 13.2468 16.9888 12.3596C16.7343 11.4724 15.923 10.861 15 10.861C14.077 10.861 13.2656 11.4724 13.0112 12.3596C12.7567 13.2468 13.1207 14.1953 13.9034 14.6845C12.6974 15.139 11.8984 16.2922 11.8965 17.581C9.9501 16.1212 9.2842 13.5022 10.297 11.29C11.3098 9.07779 13.7274 7.87048 16.1043 8.38996C18.4813 8.90944 20.1748 11.0152 20.1724 13.4483Z" fill="#3B97D3"/>
</g>
<path id="Shape_9" d="M18.1034 17.581V17.5862C16.2643 18.9655 13.7356 18.9655 11.8965 17.5862V17.581C11.8984 16.2922 12.6974 15.139 13.9034 14.6845C14.5739 15.1052 15.426 15.1052 16.0965 14.6845C17.3025 15.139 18.1015 16.2922 18.1034 17.581Z" fill="#F29C1F"/>
<path id="Shape_10" d="M17.0688 12.931C17.0685 13.644 16.701 14.3066 16.0964 14.6845C15.4259 15.1052 14.5738 15.1052 13.9033 14.6845C13.0595 14.1571 12.7106 13.1037 13.0728 12.1769C13.4351 11.2501 14.4057 10.7124 15.3836 10.8969C16.3614 11.0815 17.0693 11.936 17.0688 12.931Z" fill="#FDD7AD"/>
</g>
</g>
</g>
<defs>
<clipPath id="clip0_113_600">
<rect width="30" height="30" fill="white"/>
</clipPath>
</defs>
</svg>
